<svg xmlns="http://www.w3.org/2000/svg" viewBox="0 0 512 512" width="512" height="512">
  <defs>
    <linearGradient id="bg" x1="0" y1="0" x2="0" y2="1">
      <stop offset="0%" stop-color="#2a2460"/>
      <stop offset="100%" stop-color="#11102e"/>
    </linearGradient>
  </defs>

  <!-- Rounded square background -->
  <rect width="512" height="512" rx="96" ry="96" fill="url(#bg)"/>
  <!-- Database icon: 24×24 source scaled to 300px and centered (translate 106,106 scale 12.5) -->
  <g transform="translate(106, 106) scale(12.5)">
    <path
      fill="#ffffff"
      fill-opacity="0.95"
      d="M21 9.5V12.5C21 14.9853 16.9706 17 12 17C7.02944 17 3 14.9853 3 12.5V9.5C3 11.9853 7.02944 14 12 14C16.9706 14 21 11.9853 21 9.5ZM3 14.5C3 16.9853 7.02944 19 12 19C16.9706 19 21 16.9853 21 14.5V17.5C21 19.9853 16.9706 22 12 22C7.02944 22 3 19.9853 3 17.5V14.5ZM12 12C7.02944 12 3 9.98528 3 7.5C3 5.01472 7.02944 3 12 3C16.9706 3 21 5.01472 21 7.5C21 9.98528 16.9706 12 12 12Z"
    />
  </g>
</svg>
